%
M48
M72
T01C0.0236
T02C0.0320
T03C0.0354
T04C0.0400
T05C0.0433
T06C0.0512
T07C0.1340
%
T01
X10692Y5310
X15192Y3810
X15922Y5710
X19382Y6340
X19132Y7850
X17032Y8550
X15492Y9600
T02
X6872Y9890
X8752Y9600
X9752Y9600
X6872Y8890
X4082Y2060
X5082Y2060
X16472Y4660
X16472Y5660
T03
X2452Y5374
X2452Y7106
T04
X9232Y7630
X9232Y6630
X9232Y5630
X9232Y4630
X9467Y2450
X10467Y2450
X11467Y2450
X12467Y2450
X12467Y1450
X11467Y1450
X10467Y1450
X9467Y1450
X8467Y1450
X8467Y2450
X11232Y10450
X12232Y10450
X13232Y10450
X14232Y10450
X15812Y10450
X16812Y10450
X17812Y10450
X18812Y10450
X14722Y9140
X13722Y9140
X12722Y9140
X14392Y1650
X15392Y1650
X16392Y1650
X17392Y1650
T05
X3802Y10780
X6802Y10780
X15882Y3520
X18882Y3520
T06
X19062Y9289
X19062Y1415
T07
X1832Y1840
X1922Y10200
M30
