G75*
%MOIN*%
%OFA0B0*%
%FSLAX24Y24*%
%IPPOS*%
%LPD*%
%AMOC8*
5,1,8,0,0,1.08239X$1,22.5*
%
%ADD10C,0.0000*%
%ADD11R,0.0370X0.0400*%
%ADD12R,0.2800X0.1040*%
%ADD13R,0.0140X0.0990*%
%ADD14R,0.0472X0.0118*%
%ADD15R,0.0118X0.0472*%
%ADD16C,0.0520*%
%ADD17R,0.0787X0.0591*%
%ADD18R,0.0787X0.1496*%
%ADD19R,0.0984X0.0787*%
%ADD20R,0.1299X0.0787*%
%ADD21R,0.1220X0.0197*%
%ADD22OC8,0.0600*%
%ADD23C,0.0600*%
%ADD24OC8,0.0520*%
%ADD25R,0.0512X0.0591*%
%ADD26OC8,0.0620*%
%ADD27C,0.0620*%
%ADD28C,0.0669*%
%ADD29C,0.0768*%
%ADD30C,0.0120*%
%ADD31C,0.0100*%
%ADD32C,0.0160*%
%ADD33C,0.0356*%
%ADD34R,0.0356X0.0356*%
%ADD35R,0.2540X0.2540*%
D10*
X000352Y000270D02*
X000352Y011716D01*
X019882Y011716D01*
X019882Y000270D01*
X000352Y000270D01*
X002275Y005374D02*
X002277Y005400D01*
X002283Y005426D01*
X002293Y005451D01*
X002306Y005474D01*
X002322Y005494D01*
X002342Y005512D01*
X002364Y005527D01*
X002387Y005539D01*
X002413Y005547D01*
X002439Y005551D01*
X002465Y005551D01*
X002491Y005547D01*
X002517Y005539D01*
X002541Y005527D01*
X002562Y005512D01*
X002582Y005494D01*
X002598Y005474D01*
X002611Y005451D01*
X002621Y005426D01*
X002627Y005400D01*
X002629Y005374D01*
X002627Y005348D01*
X002621Y005322D01*
X002611Y005297D01*
X002598Y005274D01*
X002582Y005254D01*
X002562Y005236D01*
X002540Y005221D01*
X002517Y005209D01*
X002491Y005201D01*
X002465Y005197D01*
X002439Y005197D01*
X002413Y005201D01*
X002387Y005209D01*
X002363Y005221D01*
X002342Y005236D01*
X002322Y005254D01*
X002306Y005274D01*
X002293Y005297D01*
X002283Y005322D01*
X002277Y005348D01*
X002275Y005374D01*
X002275Y007106D02*
X002277Y007132D01*
X002283Y007158D01*
X002293Y007183D01*
X002306Y007206D01*
X002322Y007226D01*
X002342Y007244D01*
X002364Y007259D01*
X002387Y007271D01*
X002413Y007279D01*
X002439Y007283D01*
X002465Y007283D01*
X002491Y007279D01*
X002517Y007271D01*
X002541Y007259D01*
X002562Y007244D01*
X002582Y007226D01*
X002598Y007206D01*
X002611Y007183D01*
X002621Y007158D01*
X002627Y007132D01*
X002629Y007106D01*
X002627Y007080D01*
X002621Y007054D01*
X002611Y007029D01*
X002598Y007006D01*
X002582Y006986D01*
X002562Y006968D01*
X002540Y006953D01*
X002517Y006941D01*
X002491Y006933D01*
X002465Y006929D01*
X002439Y006929D01*
X002413Y006933D01*
X002387Y006941D01*
X002363Y006953D01*
X002342Y006968D01*
X002322Y006986D01*
X002306Y007006D01*
X002293Y007029D01*
X002283Y007054D01*
X002277Y007080D01*
X002275Y007106D01*
D11*
X010097Y010880D03*
X012017Y008720D03*
X019367Y011140D03*
X013627Y001370D03*
X007637Y001090D03*
D12*
X018242Y005160D03*
D13*
X017802Y005995D03*
D14*
X015405Y006065D03*
X015405Y006262D03*
X015405Y006459D03*
X015405Y006656D03*
X015405Y006853D03*
X015405Y005868D03*
X015405Y005672D03*
X015405Y005475D03*
X015405Y005278D03*
X015405Y005081D03*
X015405Y004884D03*
X015405Y004687D03*
X012059Y004687D03*
X012059Y004884D03*
X012059Y005081D03*
X012059Y005278D03*
X012059Y005475D03*
X012059Y005672D03*
X012059Y005868D03*
X012059Y006065D03*
X012059Y006262D03*
X012059Y006459D03*
X012059Y006656D03*
X012059Y006853D03*
D15*
X012649Y007443D03*
X012846Y007443D03*
X013043Y007443D03*
X013240Y007443D03*
X013437Y007443D03*
X013633Y007443D03*
X013830Y007443D03*
X014027Y007443D03*
X014224Y007443D03*
X014421Y007443D03*
X014618Y007443D03*
X014814Y007443D03*
X014814Y004097D03*
X014618Y004097D03*
X014421Y004097D03*
X014224Y004097D03*
X014027Y004097D03*
X013830Y004097D03*
X013633Y004097D03*
X013437Y004097D03*
X013240Y004097D03*
X013043Y004097D03*
X012846Y004097D03*
X012649Y004097D03*
D16*
X016472Y004660D03*
X016472Y005660D03*
D17*
X005532Y006174D03*
X005532Y007080D03*
X005532Y007986D03*
D18*
X008012Y007080D03*
D19*
X001271Y007992D03*
X001271Y004488D03*
D20*
X003594Y004488D03*
X003594Y007992D03*
D21*
X003633Y006870D03*
X003633Y006555D03*
X003633Y006240D03*
X003633Y005925D03*
X003633Y005610D03*
D22*
X008467Y002450D03*
X009467Y002450D03*
X010467Y002450D03*
X011467Y002450D03*
X012467Y002450D03*
X012467Y001450D03*
X011467Y001450D03*
X010467Y001450D03*
X009467Y001450D03*
X008467Y001450D03*
D23*
X014392Y001350D02*
X014392Y001950D01*
X015392Y001950D02*
X015392Y001350D01*
X016392Y001350D02*
X016392Y001950D01*
X017392Y001950D02*
X017392Y001350D01*
X009532Y004630D02*
X008932Y004630D01*
X008932Y005630D02*
X009532Y005630D01*
X009532Y006630D02*
X008932Y006630D01*
X008932Y007630D02*
X009532Y007630D01*
X012722Y008840D02*
X012722Y009440D01*
X013722Y009440D02*
X013722Y008840D01*
X014722Y008840D02*
X014722Y009440D01*
X014232Y010150D02*
X014232Y010750D01*
X013232Y010750D02*
X013232Y010150D01*
X012232Y010150D02*
X012232Y010750D01*
X011232Y010750D02*
X011232Y010150D01*
X015812Y010150D02*
X015812Y010750D01*
X016812Y010750D02*
X016812Y010150D01*
X017812Y010150D02*
X017812Y010750D01*
X018812Y010750D02*
X018812Y010150D01*
D24*
X006872Y009890D03*
X006872Y008890D03*
D25*
X010928Y007470D03*
X011676Y007470D03*
X016348Y006650D03*
X017096Y006650D03*
X017968Y006650D03*
X018716Y006650D03*
X018486Y008410D03*
X017738Y008410D03*
X011326Y004530D03*
X010578Y004530D03*
X014108Y003050D03*
X014856Y003050D03*
D26*
X004082Y002060D03*
X008752Y009600D03*
D27*
X009752Y009600D03*
X005082Y002060D03*
D28*
X015882Y003520D03*
X018882Y003520D03*
X006802Y010780D03*
X003802Y010780D03*
D29*
X019062Y009289D03*
X019062Y001415D03*
D30*
X014992Y003080D02*
X014992Y003575D01*
X014618Y003575D01*
X014618Y004097D01*
X014027Y004097D02*
X014022Y002987D01*
X014108Y003050D01*
X014856Y003050D02*
X014992Y003080D01*
X015882Y003520D02*
X015872Y004340D01*
X015842Y004680D01*
X015405Y004680D01*
X015405Y004687D01*
X015405Y005081D02*
X016282Y005081D01*
X016472Y004660D01*
X016312Y005280D02*
X015405Y005270D01*
X015405Y005278D01*
X016312Y005280D02*
X016472Y005660D01*
X016886Y006445D01*
X017096Y006650D01*
X016348Y006650D02*
X016348Y007260D01*
X016812Y007260D01*
X016812Y008410D01*
X017032Y008410D01*
X017032Y008550D01*
X017032Y008410D02*
X017738Y008410D01*
X017762Y008434D01*
X017762Y008830D01*
X018490Y009289D01*
X019062Y009289D01*
X017832Y009550D02*
X016852Y009550D01*
X015602Y008430D01*
X015605Y006850D01*
X015405Y006853D01*
X016348Y006650D02*
X016178Y006065D01*
X015405Y006065D01*
X016812Y007260D02*
X017572Y007260D01*
X017968Y006650D01*
X019132Y007850D02*
X019132Y008410D01*
X018486Y008410D01*
X017832Y009550D02*
X017822Y010030D01*
X017812Y010450D01*
X016812Y010450D02*
X015424Y008770D01*
X014812Y007950D01*
X014812Y007443D01*
X014814Y007443D01*
X013722Y008260D02*
X013437Y007925D01*
X013437Y007443D01*
X013242Y007443D02*
X013240Y007443D01*
X013240Y010450D01*
X013232Y010450D01*
X014232Y010450D02*
X015812Y010450D01*
X013722Y009140D02*
X013722Y008260D01*
X013043Y008060D02*
X013043Y007443D01*
X012846Y007443D02*
X012846Y007906D01*
X012692Y008030D01*
X010942Y008030D01*
X010512Y008460D01*
X009152Y008460D01*
X008742Y008870D01*
X008742Y009600D01*
X008752Y009600D01*
X009692Y009600D02*
X009692Y011270D01*
X011062Y009620D02*
X012222Y010030D01*
X012232Y010450D01*
X011062Y009620D02*
X010892Y009420D01*
X010892Y008440D01*
X011102Y008220D01*
X012882Y008220D01*
X013043Y008060D01*
X012649Y007505D02*
X012649Y007443D01*
X011676Y007470D02*
X011636Y007470D01*
X011636Y007005D01*
X011492Y006860D01*
X010352Y006860D01*
X010022Y007640D01*
X009312Y007640D01*
X009232Y007630D02*
X008001Y007616D01*
X008001Y008300D01*
X007472Y008920D01*
X005532Y007986D02*
X005486Y007940D01*
X004832Y007940D01*
X004822Y007930D01*
X004822Y005630D01*
X004772Y005580D01*
X007492Y003660D02*
X008012Y004180D01*
X008012Y007080D01*
X009232Y006630D02*
X010242Y006630D01*
X010342Y006320D01*
X010342Y005868D01*
X012059Y005868D01*
X012059Y005672D02*
X008892Y005672D01*
X009232Y005630D01*
X009232Y004630D02*
X009332Y004530D01*
X010578Y004530D01*
X009752Y009600D02*
X009692Y009600D01*
D31*
X010922Y008020D02*
X010942Y008030D01*
X010967Y008035D01*
X011676Y007470D02*
X011852Y007530D01*
X011852Y007660D01*
X012652Y007660D01*
X012649Y007443D01*
X011852Y007660D02*
X011822Y007660D01*
X015405Y006262D02*
X015812Y006262D01*
X015812Y007270D01*
X015912Y007390D01*
X015912Y008060D01*
X016962Y009110D01*
X017672Y009110D01*
X018792Y009920D01*
X018812Y010450D01*
X015492Y009600D02*
X014252Y010090D01*
X014222Y010090D01*
X014222Y010490D01*
X014232Y010450D01*
X016192Y006685D02*
X016348Y006650D01*
X015842Y005870D02*
X015792Y005870D01*
X015842Y005868D01*
X015405Y005868D01*
X015842Y005870D02*
X015922Y005710D01*
X014814Y004097D02*
X014812Y003917D01*
X015192Y003810D01*
X013837Y003765D02*
X013827Y004083D01*
X013830Y004097D01*
X013633Y004097D02*
X013633Y003820D01*
X013612Y003770D01*
X013252Y003390D01*
X013252Y002420D01*
X013217Y002330D01*
X013217Y000935D01*
X015942Y000935D01*
X016392Y001385D01*
X016392Y001650D01*
X017392Y001650D02*
X017392Y000760D01*
X012542Y000760D01*
X010742Y000760D01*
X010557Y001045D01*
X010467Y001450D01*
X009467Y001450D01*
X009467Y002450D02*
X009632Y002615D01*
X009632Y003140D01*
X009932Y003440D01*
X012662Y003440D01*
X012662Y004097D01*
X012649Y004097D01*
X011512Y004020D02*
X010002Y004010D01*
X009792Y003910D01*
X009042Y003910D01*
X008792Y003660D01*
X007492Y003660D01*
X010692Y005310D02*
X011192Y005310D01*
X011421Y005081D01*
X012059Y005081D01*
X011502Y004620D02*
X011512Y004020D01*
X011326Y004530D02*
X011502Y004620D01*
X013442Y003250D02*
X013837Y003765D01*
X013442Y003250D02*
X013442Y002420D01*
X015192Y002430D01*
X015317Y002425D01*
X015317Y001725D01*
X015392Y001650D01*
X012542Y001605D02*
X012542Y000760D01*
X012467Y001450D02*
X012542Y001605D01*
D32*
X014856Y003050D02*
X014859Y003047D01*
X017375Y002617D01*
X017392Y001650D01*
X008467Y001450D02*
X007872Y001750D01*
X007492Y001750D01*
X007492Y003660D01*
X004772Y003170D02*
X004082Y002060D01*
X005082Y002060D02*
X005092Y006050D01*
X005532Y006174D01*
X004772Y005590D02*
X004772Y005580D01*
X004772Y003170D01*
X004772Y005590D02*
X003633Y005610D01*
X003633Y006870D02*
X004542Y006890D01*
X004542Y009660D01*
X003802Y010780D01*
X005532Y008930D02*
X006872Y009890D01*
X006872Y008890D02*
X007472Y008920D01*
X007482Y011270D01*
X008942Y011271D01*
X009232Y011270D01*
X009692Y011270D01*
X011192Y011270D01*
X011212Y010460D01*
X011232Y010450D01*
X011192Y011270D02*
X018452Y011270D01*
X018812Y010450D01*
X019062Y006660D02*
X018716Y006650D01*
X019062Y006660D02*
X019382Y006340D01*
X010928Y007470D02*
X010922Y007530D01*
X010922Y008020D01*
X009312Y007640D02*
X009232Y007630D01*
X005532Y007986D02*
X005532Y008930D01*
D33*
X010692Y005310D03*
X015192Y003810D03*
X015922Y005710D03*
X019132Y007850D03*
X017032Y008550D03*
X015492Y009600D03*
D34*
X019382Y006340D03*
D35*
X001922Y010200D03*
X001832Y001840D03*
M02*
